<svg width="30" height="30" viewBox="0 0 30 30" fill="none" xmlns="http://www.w3.org/2000/svg">
<path fill-rule="evenodd" clip-rule="evenodd" d="M10.4 0H19.6C28 0 30 2 30 10.4V19.6C30 28 28 30 19.6 30H10.4C2 30 0 28 0 19.6V10.4C0 2 2 0 10.4 0Z" fill="black"/>
<path fill-rule="evenodd" clip-rule="evenodd" d="M24.5678 10.3353C24.7069 9.87188 24.5678 9.53125 23.9063 9.53125H21.7188C21.1625 9.53125 20.9063 9.82547 20.7672 10.15C20.7672 10.15 19.6547 12.8614 18.0788 14.6227C17.5689 15.1325 17.3372 15.2947 17.0591 15.2947C16.92 15.2947 16.7188 15.1325 16.7188 14.6691V10.3353C16.7188 9.77906 16.5573 9.53125 16.0938 9.53125H12.6563C12.3088 9.53125 12.0997 9.78938 12.0997 10.0341C12.0997 10.5614 12.8875 10.683 12.9688 12.1661V15.3875C12.9688 16.0937 12.8413 16.2219 12.5631 16.2219C11.8216 16.2219 10.0178 13.4981 8.94781 10.3817C8.73813 9.77594 8.52781 9.53125 7.96875 9.53125H5.78125C5.15625 9.53125 5.03125 9.82547 5.03125 10.15C5.03125 10.7294 5.77297 13.6031 8.48438 17.4037C10.292 19.9992 12.8388 21.4062 15.1563 21.4062C16.5469 21.4062 16.7188 21.0937 16.7188 20.5555V18.5937C16.7188 17.9687 16.8505 17.8441 17.2908 17.8441C17.6153 17.8441 18.1714 18.0062 19.4694 19.2576C20.9525 20.7409 21.1969 21.4062 22.0313 21.4062H24.2188C24.8438 21.4062 25.1563 21.0937 24.9759 20.477C24.7788 19.8623 24.0706 18.9708 23.1309 17.9136C22.6211 17.3109 21.8563 16.662 21.6247 16.3377C21.3002 15.9205 21.3928 15.735 21.6247 15.3642C21.6247 15.3642 24.2897 11.61 24.5678 10.3353V10.3353Z" fill="white"/>
</svg>
